<svg width="68" height="24" viewBox="0 0 68 24" fill="none" xmlns="http://www.w3.org/2000/svg">
<mask id="mask0_213_13" style="mask-type:luminance" maskUnits="userSpaceOnUse" x="0" y="0" width="68" height="24">
<path d="M68 0H1.80968e-06V24H68V0Z" fill="white"/>
</mask>
<g mask="url(#mask0_213_13)">
<path d="M0.13313 0.237954C0.220746 0.388436 0.330637 0.608599 0.488047 0.858414C0.795444 1.36397 1.23129 2.01557 1.71466 2.62639C2.67398 3.85545 3.81372 4.89103 3.81372 4.89103C3.81372 4.89103 4.30749 4.57005 4.802 4.24833C5.29205 3.92068 5.7821 3.59229 5.7821 3.59229C5.7821 3.59229 5.47025 4.07561 5.17176 4.57302C4.87179 5.06894 4.58518 5.57969 4.58518 5.57969C4.58518 5.57969 4.94381 5.87917 5.30764 6.16679C5.49252 6.30838 5.67666 6.44996 5.81477 6.55597C5.95585 6.65827 6.05014 6.72646 6.05014 6.72646C6.05014 6.72646 6.50456 6.34767 6.95823 5.96887C7.40818 5.58562 7.85814 5.20237 7.85814 5.20237C7.85814 5.20237 7.59975 5.72498 7.36289 6.25278C7.12232 6.7791 6.89437 7.31727 6.89437 7.31727C6.89437 7.31727 6.99015 7.38176 7.13346 7.47887C7.27973 7.57228 7.47501 7.69681 7.67029 7.82135C7.8626 7.94811 8.0653 8.06227 8.21232 8.15345C8.36082 8.2424 8.45957 8.30171 8.45957 8.30171C8.45957 8.30171 8.87537 7.87991 9.29117 7.45738C9.70326 7.03113 10.1154 6.60489 10.1154 6.60489C10.1154 6.60489 9.91413 7.149 9.7248 7.70052C9.53174 8.25352 9.35726 8.80652 9.35726 8.80652C9.35726 8.80652 9.76638 9.01927 10.1748 9.23351C10.5779 9.45293 10.9982 9.64122 10.9982 9.64122C10.9982 9.64122 11.3784 9.18384 11.7578 8.72646C12.1327 8.26686 12.5084 7.80726 12.5084 7.80726C12.5084 7.80726 12.3585 8.37065 12.2077 8.93403C12.0674 9.50334 11.9271 10.0734 11.9271 10.0734C11.9271 10.0734 12.028 10.1245 12.1884 10.1875C12.3473 10.252 12.5582 10.3388 12.7698 10.4255C12.9792 10.5122 13.1893 10.5982 13.3475 10.6635C13.5034 10.7302 13.6118 10.7672 13.6118 10.7672C13.6118 10.7672 13.9541 10.2787 14.2957 9.79096C14.6335 9.30022 14.9713 8.80949 14.9713 8.80949C14.9713 8.80949 14.8659 9.38251 14.7612 9.95478C14.6662 10.533 14.5711 11.1112 14.5711 11.1112C14.5711 11.1112 14.9921 11.2721 15.428 11.3973C15.8579 11.53 16.2885 11.6635 16.2885 11.6635C16.2885 11.6635 16.5892 11.1505 16.89 10.6383C17.187 10.1216 17.4847 9.60563 17.4847 9.60563C17.4847 9.60563 17.4246 10.1846 17.3644 10.7628C17.3147 11.3454 17.2657 11.9288 17.2657 11.9288C17.2657 11.9288 17.3733 11.957 17.5352 11.9993C17.6985 12.0393 17.9116 12.1038 18.1314 12.149C18.5673 12.2424 19.0039 12.3358 19.0039 12.3358C19.0039 12.3358 19.2637 11.7991 19.5236 11.2624C19.7783 10.7242 20.0345 10.1861 20.0345 10.1861C20.0345 10.1861 20.0285 10.3328 20.0204 10.553C20.0144 10.7724 20.0077 11.0652 19.9996 11.358C19.9951 11.9422 19.9899 12.5263 19.9899 12.5263C19.9899 12.5263 20.4265 12.5997 20.8624 12.6738C21.0784 12.7146 21.3004 12.7339 21.4638 12.7561C21.6279 12.7761 21.7378 12.7895 21.7378 12.7895C21.7378 12.7895 21.9546 12.232 22.1714 11.6753C22.3837 11.1164 22.5961 10.5575 22.5961 10.5575C22.5961 10.5575 22.6228 11.1446 22.6496 11.7324C22.6807 12.3239 22.7275 12.9059 22.7275 12.9059C22.7275 12.9059 23.1641 12.94 23.6007 12.9741C24.0343 13.0163 24.4709 13.0267 24.4709 13.0267C24.4709 13.0267 24.6424 12.4514 24.8154 11.8769C24.9825 11.301 25.1503 10.7257 25.1503 10.7257C25.1503 10.7257 25.2216 11.3084 25.2929 11.891C25.376 12.4759 25.4592 13.0608 25.4592 13.0608C25.4592 13.0608 25.5661 13.0697 25.7295 13.0652C25.8913 13.063 26.1074 13.0608 26.3242 13.0586C26.5395 13.0563 26.7549 13.0549 26.916 13.0526C27.0771 13.0526 27.1848 13.0474 27.1848 13.0474C27.1848 13.0474 27.3103 12.4589 27.4357 11.8703C27.556 11.2809 27.6771 10.6924 27.6771 10.6924C27.6771 10.6924 27.7929 11.2669 27.9087 11.8414C28.0364 12.4173 28.1634 12.9933 28.1634 12.9933C28.1634 12.9933 28.2703 12.9874 28.43 12.9785C28.5888 12.9748 28.8019 12.9496 29.0136 12.9281C29.4368 12.8858 29.8593 12.8428 29.8593 12.8428C29.8593 12.8428 29.9365 12.2476 30.0137 11.6523C30.0857 11.0563 30.1578 10.4596 30.1578 10.4596C30.1578 10.4596 30.3107 11.0222 30.477 11.5856C30.6419 12.149 30.8208 12.7124 30.8208 12.7124C30.8208 12.7124 31.2381 12.6553 31.6509 12.5856C32.0623 12.5056 32.4736 12.4248 32.4736 12.4248C32.4736 12.4248 32.5004 11.8228 32.5278 11.2216C32.5494 10.6205 32.5716 10.0193 32.5716 10.0193C32.5716 10.0193 32.7677 10.5797 32.9808 11.129C33.1991 11.6768 33.4166 12.2261 33.4166 12.2261C33.4166 12.2261 33.5191 12.2016 33.672 12.166C33.825 12.1327 34.0307 12.0815 34.2378 12.0267C34.4435 11.9741 34.6499 11.9207 34.8043 11.8814C34.9603 11.8384 35.0642 11.8095 35.0642 11.8095L35.0026 9.3914C35.0026 9.3914 35.2528 9.92958 35.5038 10.4678C35.7585 11.0044 36.0258 11.536 36.0258 11.536C36.0258 11.536 36.4445 11.4092 36.8641 11.2832C37.2865 11.1505 37.709 11.0178 37.709 11.0178L37.5494 8.596C37.5494 8.596 37.8345 9.12157 38.1196 9.64641C38.4107 10.1705 38.701 10.6938 38.701 10.6938L40.4414 10.1075L40.2432 7.68199L41.475 9.75463L43.2956 9.13862L43.1189 6.70423L44.3856 8.77984C44.3856 8.77984 44.8623 8.62787 45.339 8.47665C45.5803 8.40178 45.8224 8.32765 46.0043 8.27131C46.1877 8.21646 46.3102 8.17939 46.3102 8.17939L46.2181 5.73091C46.2181 5.73091 46.5344 6.25797 46.8507 6.78503C47.1618 7.31357 47.473 7.84211 47.473 7.84211C47.473 7.84211 47.9719 7.69904 48.488 7.56709C48.9929 7.42995 49.5334 7.30689 49.5334 7.30689C49.5334 7.30689 49.5475 6.69236 49.5624 6.07858C49.5817 5.46331 49.6017 4.84878 49.6017 4.84878C49.6017 4.84878 49.9047 5.39066 50.2083 5.9318C50.5031 6.47887 50.7979 7.02595 50.7979 7.02595C50.7979 7.02595 50.9338 6.99778 51.1379 6.95626C51.3399 6.91179 51.6154 6.86064 51.8923 6.8132C52.1693 6.76427 52.447 6.71609 52.6549 6.67976C52.865 6.64789 53.0061 6.62639 53.0061 6.62639C53.0061 6.62639 53.0729 6.01408 53.1405 5.40178C53.2132 4.78947 53.2868 4.17643 53.2868 4.17643C53.2868 4.17643 53.5645 4.74055 53.8273 5.30615C54.0916 5.87027 54.3463 6.44626 54.3463 6.44626C54.3463 6.44626 54.4896 6.42995 54.7057 6.40623C54.9232 6.38547 55.2076 6.34618 55.5031 6.32765C55.7972 6.30615 56.0912 6.28466 56.3125 6.26909C56.5337 6.25426 56.6822 6.24463 56.6822 6.24463C56.6822 6.24463 56.8144 5.64122 56.9458 5.03781C57.0854 4.43514 57.225 3.83173 57.225 3.83173C57.225 3.83173 57.4633 4.42402 57.6831 5.01631C57.79 5.31208 57.8977 5.60786 57.9779 5.8295C58.0559 6.05337 58.1078 6.20311 58.1078 6.20311C58.1078 6.20311 58.7226 6.20904 59.3359 6.21572C59.9626 6.24907 60.5885 6.28317 60.5885 6.28317C60.5885 6.28317 60.7979 5.69681 61.0081 5.11045C61.2286 4.53002 61.4491 3.94885 61.4491 3.94885C61.4491 3.94885 61.6347 4.57228 61.7973 5.19348C61.9614 5.81468 62.1025 6.43291 62.1025 6.43291C62.1025 6.43291 62.2569 6.44922 62.4923 6.48777C62.727 6.52483 63.0403 6.5745 63.3536 6.62417C63.6662 6.66938 63.9848 6.74351 64.2231 6.79318C64.4614 6.84433 64.6196 6.87917 64.6196 6.87917C65.051 6.9659 65.4586 7.14307 65.8291 7.36842C66.1989 7.59081 66.5315 7.86434 66.8181 8.20237C67.104 8.53521 67.3446 8.89696 67.5302 9.30319C67.7143 9.71535 67.8465 10.1542 67.923 10.6086C67.9616 10.8362 67.9854 11.0675 67.9965 11.3024C68.0047 11.5426 67.9995 11.7858 67.9809 12.0304C67.943 12.5204 67.8517 13.0171 67.7084 13.5145C67.4225 14.5093 66.9303 15.5041 66.2895 16.4796C65.9591 16.983 65.6086 17.4552 65.2529 17.8984C64.7844 17.4737 64.209 17.0245 63.5125 16.6042C62.6379 16.0719 61.5664 15.5789 60.3547 15.2239C59.1414 14.8584 57.7871 14.6086 56.3496 14.4596C54.9099 14.3113 53.3989 14.235 51.8263 14.2061C50.2566 14.1794 48.632 14.1927 46.9851 14.2832C45.3375 14.3692 43.6669 14.5159 42.0037 14.7176C40.339 14.9281 38.6899 15.2046 37.0712 15.4796C35.4526 15.7509 33.8681 16.0378 32.3266 16.252C30.7867 16.4618 29.295 16.6264 27.8738 16.6842C26.4564 16.7472 25.111 16.7057 23.8777 16.5856C22.6451 16.4618 21.5232 16.2609 20.5475 16.0082C19.5704 15.7554 18.7432 15.4492 18.0743 15.1675C17.4112 14.874 16.8996 14.6168 16.561 14.4233C16.2232 14.2276 16.0428 14.1238 16.0428 14.1238C16.0428 14.1238 16.215 14.2402 16.5395 14.4581C16.8662 14.6724 17.3555 14.9755 18.0126 15.3017C18.6712 15.6205 19.4917 15.9726 20.4688 16.2795C21.4452 16.5886 22.5753 16.8517 23.8264 17.0185C25.0768 17.189 26.4452 17.2817 27.8916 17.2506C29.3365 17.2298 30.8565 17.1082 32.415 16.914C33.9735 16.7176 35.5751 16.4737 37.193 16.2024C38.8116 15.9362 40.4533 15.6709 42.098 15.4707C43.7434 15.2617 45.3954 15.1082 47.026 15.0141C48.6565 14.9214 50.2633 14.8666 51.8196 14.8725C53.3714 14.8829 54.8831 14.9125 56.2976 15.0215C57.7136 15.1364 59.0419 15.3306 60.2373 15.6412C61.4365 15.9526 62.4849 16.3714 63.3722 16.848C64.0746 17.2239 64.6619 17.636 65.1438 18.0311C64.8461 18.3966 64.5453 18.7457 64.2506 19.0704C63.9083 19.4477 63.5727 19.7969 63.2526 20.1171C63.0937 20.2728 62.9378 20.4248 62.7864 20.573C62.6319 20.7183 62.4812 20.8592 62.3357 20.9963C62.0453 21.2617 61.7758 21.4937 61.5315 21.6842C61.2828 21.8799 61.0452 22.0474 60.8388 22.1609C60.6346 22.2698 60.4371 22.3491 60.2581 22.3736C60.0807 22.3958 59.9255 22.3603 59.7636 22.2824C59.7636 22.2824 59.7064 22.2506 59.6203 22.2046C59.5334 22.1579 59.4228 22.0875 59.2936 22.0356C59.1681 21.9778 59.0426 21.9192 58.9483 21.8762C58.9016 21.854 58.8615 21.8347 58.834 21.8221C58.8043 21.8102 58.788 21.8043 58.788 21.8043C58.788 21.8043 58.5407 22.3499 58.3172 22.8992C58.0915 23.4485 57.8888 24 57.8888 24C57.8888 24 57.9497 23.3855 58.0106 22.7709C58.0596 22.1579 58.1086 21.5448 58.1086 21.5448C58.1086 21.5448 57.8071 21.447 57.5057 21.3477C57.1871 21.2617 56.8686 21.1749 56.8686 21.1749C56.8686 21.1749 56.8226 21.3165 56.7535 21.5285C56.6867 21.7428 56.5968 22.0282 56.5077 22.3136C56.3332 22.8851 56.1781 23.4566 56.1781 23.4566C56.1781 23.4566 56.1558 22.8406 56.1328 22.2261C56.1031 21.6101 56.0726 20.9941 56.0726 20.9941C56.0726 20.9941 55.7237 20.9318 55.3754 20.8695C55.2017 20.8347 55.0168 20.8184 54.8824 20.7969C54.7465 20.7784 54.6559 20.7658 54.6559 20.7658C54.6559 20.7658 54.5171 21.3425 54.3894 21.9288C54.2594 22.5145 54.1443 23.0993 54.1443 23.0993C54.1443 23.0993 54.0552 22.4915 53.9654 21.8836C53.8704 21.2758 53.7761 20.6686 53.7761 20.6686C53.7761 20.6686 53.6818 20.659 53.5407 20.6457C53.3974 20.636 53.2066 20.6234 53.015 20.6108C52.8242 20.596 52.6311 20.5849 52.4834 20.5819C52.3371 20.5767 52.2391 20.573 52.2391 20.573C52.2391 20.573 52.144 21.1631 52.049 21.7539C51.9636 22.3462 51.8782 22.9392 51.8782 22.9392C51.8782 22.9392 51.7364 22.3425 51.5953 21.7457C51.4483 21.1497 51.302 20.5537 51.302 20.5537C51.302 20.5537 50.9085 20.5456 50.4853 20.5597C50.0717 20.5641 49.644 20.5834 49.644 20.5834C49.644 20.5834 49.5698 21.1809 49.4955 21.7784C49.4265 22.3751 49.3582 22.9718 49.3582 22.9718L48.6275 20.6316C48.6275 20.6316 48.5184 20.6383 48.355 20.6471C48.1924 20.656 47.9734 20.6694 47.7499 20.6872C47.3029 20.7198 46.8567 20.7532 46.8567 20.7532L46.5961 23.1557L45.7852 20.8443L43.9193 21.0185L43.629 23.4277L42.7981 21.126L40.8424 21.3054C40.8424 21.3054 40.7525 21.9066 40.662 22.5085C40.5654 23.1097 40.4689 23.7116 40.4689 23.7116L39.6759 21.401C39.6759 21.401 39.1695 21.4366 38.6631 21.4729C38.1501 21.5026 37.637 21.5322 37.637 21.5322C37.637 21.5322 37.5219 22.1312 37.3935 22.7279C37.2606 23.3239 37.1269 23.9207 37.1269 23.9207L36.4289 21.5834C36.4289 21.5834 36.299 21.5878 36.1037 21.5945C35.9062 21.5975 35.6419 21.6019 35.3783 21.6064C35.1162 21.6116 34.8526 21.6138 34.6514 21.6108C34.4517 21.6093 34.3187 21.6079 34.3187 21.6079C34.3187 21.6079 34.1517 22.1964 33.9839 22.785C33.8116 23.3736 33.6208 23.9526 33.6208 23.9526C33.6208 23.9526 33.4827 23.358 33.3453 22.7635C33.2124 22.169 33.0795 21.5738 33.0795 21.5738C33.0795 21.5738 32.5449 21.55 32.0103 21.5263C31.4772 21.4893 30.947 21.4366 30.947 21.4366C30.947 21.4366 30.7325 22.0082 30.5179 22.5797C30.2907 23.1512 30.0642 23.722 30.0642 23.722C30.0642 23.722 29.9766 23.1201 29.889 22.5182C29.8073 21.9148 29.7249 21.3121 29.7249 21.3121C29.7249 21.3121 29.1992 21.2402 28.6735 21.169C28.4121 21.1327 28.15 21.0993 27.9555 21.06C27.7602 21.0252 27.6303 21.0015 27.6303 21.0015C27.6303 21.0015 27.3734 21.5508 27.1165 22.1008C26.8477 22.6486 26.5789 23.1972 26.5789 23.1972C26.5789 23.1972 26.5403 22.593 26.5024 21.9896C26.4697 21.3862 26.4363 20.7828 26.4363 20.7828C26.4363 20.7828 26.3079 20.7576 26.1156 20.7131C25.9233 20.6686 25.6671 20.6108 25.4109 20.5523C25.1555 20.4937 24.9001 20.4344 24.7085 20.3907C24.5177 20.3491 24.3915 20.3091 24.3915 20.3091C24.3915 20.3091 24.0945 20.8347 23.7982 21.3595C23.4893 21.8821 23.1812 22.4055 23.1812 22.4055C23.1812 22.4055 23.1923 21.8013 23.2027 21.1972C23.2191 20.5938 23.2354 19.9904 23.2354 19.9904C23.2354 19.9904 22.7312 19.8554 22.2375 19.6872C21.743 19.5271 21.2492 19.3662 21.2492 19.3662C21.2492 19.3662 20.918 19.8762 20.5787 20.3692C20.2335 20.8636 19.8874 21.3588 19.8874 21.3588C19.8874 21.3588 19.9468 20.7583 20.0062 20.1579C20.0701 19.5582 20.1347 18.9592 20.1347 18.9592C20.1347 18.9592 20.0129 18.9133 19.8318 18.8458C19.6506 18.7754 19.4063 18.6924 19.1694 18.5871C18.6942 18.3855 18.219 18.1838 18.219 18.1838C18.219 18.1838 17.847 18.6605 17.4751 19.1364C17.2857 19.3706 17.0956 19.6049 16.9531 19.7806C16.809 19.9548 16.7132 20.0704 16.7132 20.0704C16.7132 20.0704 16.8202 19.4774 16.9271 18.8836C17.0385 18.2921 17.1498 17.7005 17.1498 17.7005C17.1498 17.7005 16.6873 17.4789 16.2239 17.2572C15.9923 17.1475 15.7688 17.0193 15.598 16.9318C15.4287 16.8414 15.3159 16.7813 15.3159 16.7813C15.3159 16.7813 14.9104 17.2246 14.505 17.6686C14.09 18.1075 13.6742 18.5463 13.6742 18.5463C13.6742 18.5463 13.8271 17.9659 13.9801 17.3855C14.139 16.805 14.2971 16.2254 14.2971 16.2254C14.2971 16.2254 13.8576 15.9652 13.4188 15.7057C12.977 15.4544 12.5545 15.1683 12.5545 15.1683C12.5545 15.1683 12.1186 15.5767 11.6828 15.9852C11.2365 16.3884 10.7903 16.7917 10.7903 16.7917C10.7903 16.7917 10.9885 16.2276 11.1875 15.6635C11.3902 15.1016 11.5929 14.5397 11.5929 14.5397C11.5929 14.5397 11.4868 14.4715 11.3331 14.3588C11.1786 14.2476 10.9729 14.0993 10.7673 13.9518C10.5616 13.8043 10.3567 13.6568 10.2037 13.5456C10.0485 13.4374 9.95126 13.3558 9.95126 13.3558C9.95126 13.3558 9.48719 13.7265 9.02313 14.0971C8.54867 14.4618 8.07495 14.8265 8.07495 14.8265C8.07495 14.8265 8.31924 14.2809 8.56278 13.7354C8.81077 13.1927 9.05877 12.6501 9.05877 12.6501C9.05877 12.6501 8.66079 12.344 8.28582 12.0067C7.90715 11.6775 7.52847 11.3484 7.52847 11.3484C7.52847 11.3484 7.03842 11.6924 6.54242 12.0171C6.04643 12.3454 5.54004 12.6657 5.54004 12.6657C5.54004 12.6657 5.82739 12.1438 6.11548 11.6219C6.40877 11.103 6.70132 10.5841 6.70132 10.5841C6.70132 10.5841 6.33898 10.2365 5.98852 9.87843C5.81477 9.6983 5.64102 9.51816 5.51034 9.38325C5.38338 9.24463 5.29873 9.15271 5.29873 9.15271C5.29873 9.15271 4.78343 9.44403 4.257 9.72498C3.72982 10.0082 3.19819 10.2713 3.19819 10.2713C3.19819 10.2713 3.53454 9.77984 3.8709 9.2891C4.21245 8.80208 4.55474 8.31505 4.55474 8.31505C4.55474 8.31505 4.47307 8.22016 4.3513 8.07784C4.23324 7.93254 4.07583 7.73832 3.91767 7.54485C3.60879 7.15271 3.31105 6.75315 3.31105 6.75315C3.31105 6.75315 2.77125 6.98517 2.21808 7.20163C1.66566 7.42031 1.10136 7.62268 1.10136 7.62268C1.10136 7.62268 1.49266 7.17494 1.88321 6.72721C2.27971 6.28466 2.67621 5.84136 2.67621 5.84136C2.67621 5.84136 1.75105 4.48258 1.08057 3.00964C0.739756 2.2765 0.460575 1.52261 0.277176 0.95404C0.180651 0.670867 0.124221 0.427724 0.0737302 0.261675C0.0262099 0.0948851 0.000222277 0 0.000222277 0C0.000222277 0 0.0484851 0.0867309 0.13313 0.237954Z" fill="#B4CBAB"/>
</g>
</svg>
