<svg width="68" height="24" viewBox="0 0 68 24" fill="none" xmlns="http://www.w3.org/2000/svg">
<mask id="mask0_212_8" style="mask-type:luminance" maskUnits="userSpaceOnUse" x="0" y="0" width="68" height="24">
<path d="M0 0H67.8888V24H0V0Z" fill="white"/>
</mask>
<g mask="url(#mask0_212_8)">
<path d="M67.7559 0.237954C67.6684 0.388436 67.5587 0.608599 67.4016 0.858414C67.0947 1.36397 66.6595 2.01557 66.177 2.62639C65.2192 3.85545 64.0813 4.89103 64.0813 4.89103C64.0813 4.89103 63.5884 4.57005 63.0947 4.24833C62.6054 3.92068 62.1162 3.59229 62.1162 3.59229C62.1162 3.59229 62.4275 4.07561 62.7255 4.57302C63.025 5.06894 63.3111 5.57969 63.3111 5.57969C63.3111 5.57969 62.9531 5.87917 62.5898 6.16679C62.4053 6.30838 62.2214 6.44996 62.0835 6.55597C61.9427 6.65827 61.8486 6.72646 61.8486 6.72646C61.8486 6.72646 61.3949 6.34767 60.942 5.96887C60.4927 5.58562 60.0435 5.20237 60.0435 5.20237C60.0435 5.20237 60.3015 5.72498 60.538 6.25278C60.7781 6.7791 61.0057 7.31727 61.0057 7.31727C61.0057 7.31727 60.9101 7.38176 60.767 7.47887C60.621 7.57228 60.426 7.69681 60.2311 7.82135C60.0391 7.94811 59.8367 8.06227 59.6899 8.15345C59.5417 8.2424 59.4431 8.30171 59.4431 8.30171C59.4431 8.30171 59.028 7.87991 58.6128 7.45738C58.2014 7.03113 57.79 6.60489 57.79 6.60489C57.79 6.60489 57.9909 7.149 58.1799 7.70052C58.3727 8.25352 58.5469 8.80652 58.5469 8.80652C58.5469 8.80652 58.1384 9.01927 57.7307 9.23351C57.3282 9.45293 56.9086 9.64122 56.9086 9.64122C56.9086 9.64122 56.5291 9.18384 56.1503 8.72646C55.7759 8.26686 55.4008 7.80726 55.4008 7.80726C55.4008 7.80726 55.5506 8.37065 55.701 8.93403C55.8411 9.50334 55.9813 10.0734 55.9813 10.0734C55.9813 10.0734 55.8804 10.1245 55.7203 10.1875C55.5617 10.252 55.3512 10.3388 55.1399 10.4255C54.9308 10.5122 54.7211 10.5982 54.5632 10.6635C54.4075 10.7302 54.2993 10.7672 54.2993 10.7672C54.2993 10.7672 53.9575 10.2787 53.6165 9.79096C53.2792 9.30022 52.942 8.80949 52.942 8.80949C52.942 8.80949 53.0472 9.38251 53.1517 9.95478C53.2466 10.533 53.3415 11.1112 53.3415 11.1112C53.3415 11.1112 52.9212 11.2721 52.4861 11.3973C52.0569 11.53 51.6269 11.6635 51.6269 11.6635C51.6269 11.6635 51.3267 11.1505 51.0265 10.6383C50.73 10.1216 50.4327 9.60563 50.4327 9.60563C50.4327 9.60563 50.4927 10.1846 50.5528 10.7628C50.6025 11.3454 50.6514 11.9288 50.6514 11.9288C50.6514 11.9288 50.5439 11.957 50.3823 11.9993C50.2192 12.0393 50.0065 12.1038 49.787 12.149C49.3519 12.2424 48.916 12.3358 48.916 12.3358C48.916 12.3358 48.6566 11.7991 48.3971 11.2624C48.1429 10.7242 47.8871 10.1861 47.8871 10.1861C47.8871 10.1861 47.893 10.3328 47.9012 10.553C47.9071 10.7724 47.9138 11.0652 47.922 11.358C47.9264 11.9422 47.9316 12.5263 47.9316 12.5263C47.9316 12.5263 47.4957 12.5997 47.0606 12.6738C46.8449 12.7146 46.6232 12.7339 46.4601 12.7561C46.2963 12.7761 46.1866 12.7895 46.1866 12.7895C46.1866 12.7895 45.9701 12.232 45.7537 11.6753C45.5417 11.1164 45.3297 10.5575 45.3297 10.5575C45.3297 10.5575 45.303 11.1446 45.2763 11.7324C45.2452 12.3239 45.1985 12.9059 45.1985 12.9059C45.1985 12.9059 44.7626 12.94 44.3267 12.9741C43.8938 13.0163 43.4579 13.0267 43.4579 13.0267C43.4579 13.0267 43.2867 12.4514 43.1139 11.8769C42.9472 11.301 42.7796 10.7257 42.7796 10.7257C42.7796 10.7257 42.7085 11.3084 42.6373 11.891C42.5543 12.4759 42.4712 13.0608 42.4712 13.0608C42.4712 13.0608 42.3645 13.0697 42.2014 13.0652C42.0398 13.063 41.8241 13.0608 41.6076 13.0586C41.3927 13.0563 41.1777 13.0549 41.0168 13.0526C40.856 13.0526 40.7485 13.0474 40.7485 13.0474C40.7485 13.0474 40.6232 12.4589 40.4979 11.8703C40.3778 11.2809 40.257 10.6924 40.257 10.6924C40.257 10.6924 40.1414 11.2669 40.0257 11.8414C39.8982 12.4173 39.7715 12.9933 39.7715 12.9933C39.7715 12.9933 39.6647 12.9874 39.5053 12.9785C39.3467 12.9748 39.134 12.9496 38.9227 12.9281C38.5002 12.8858 38.0784 12.8428 38.0784 12.8428C38.0784 12.8428 38.0013 12.2476 37.9242 11.6523C37.8523 11.0563 37.7804 10.4596 37.7804 10.4596C37.7804 10.4596 37.6277 11.0222 37.4616 11.5856C37.297 12.149 37.1184 12.7124 37.1184 12.7124C37.1184 12.7124 36.7018 12.6553 36.2896 12.5856C35.879 12.5056 35.4683 12.4248 35.4683 12.4248C35.4683 12.4248 35.4416 11.8228 35.4142 11.2216C35.3927 10.6205 35.3704 10.0193 35.3704 10.0193C35.3704 10.0193 35.1747 10.5797 34.962 11.129C34.744 11.6768 34.5268 12.2261 34.5268 12.2261C34.5268 12.2261 34.4245 12.2016 34.2718 12.166C34.1191 12.1327 33.9138 12.0815 33.707 12.0267C33.5016 11.9741 33.2956 11.9207 33.1414 11.8814C32.9857 11.8384 32.8819 11.8095 32.8819 11.8095L32.9434 9.3914C32.9434 9.3914 32.6936 9.92958 32.4431 10.4678C32.1888 11.0044 31.922 11.536 31.922 11.536C31.922 11.536 31.5039 11.4092 31.085 11.2832C30.6632 11.1505 30.2414 11.0178 30.2414 11.0178L30.4008 8.596C30.4008 8.596 30.1162 9.12157 29.8315 9.64641C29.5409 10.1705 29.2511 10.6938 29.2511 10.6938L27.5135 10.1075L27.7114 7.68199L26.4816 9.75463L24.664 9.13862L24.8404 6.70423L23.5758 8.77984C23.5758 8.77984 23.0999 8.62787 22.624 8.47665C22.383 8.40178 22.1414 8.32765 21.9598 8.27131C21.7767 8.21646 21.6543 8.17939 21.6543 8.17939L21.7463 5.73091C21.7463 5.73091 21.4305 6.25797 21.1147 6.78503C20.8041 7.31357 20.4935 7.84211 20.4935 7.84211C20.4935 7.84211 19.9953 7.69904 19.4801 7.56709C18.9761 7.42995 18.4364 7.30689 18.4364 7.30689C18.4364 7.30689 18.4223 6.69236 18.4075 6.07858C18.3882 5.46331 18.3682 4.84878 18.3682 4.84878C18.3682 4.84878 18.0658 5.39066 17.7626 5.9318C17.4683 6.47887 17.174 7.02595 17.174 7.02595C17.174 7.02595 17.0383 6.99778 16.8345 6.95626C16.6328 6.91179 16.3578 6.86064 16.0813 6.8132C15.8048 6.76427 15.5276 6.71609 15.32 6.67976C15.1102 6.64789 14.9694 6.62639 14.9694 6.62639C14.9694 6.62639 14.9027 6.01408 14.8352 5.40178C14.7626 4.78947 14.6892 4.17643 14.6892 4.17643C14.6892 4.17643 14.4119 4.74055 14.1495 5.30615C13.8856 5.87027 13.6314 6.44626 13.6314 6.44626C13.6314 6.44626 13.4883 6.42995 13.2726 6.40623C13.0554 6.38547 12.7715 6.34618 12.4764 6.32765C12.1829 6.30615 11.8893 6.28466 11.6684 6.26909C11.4475 6.25426 11.2993 6.24463 11.2993 6.24463C11.2993 6.24463 11.1673 5.64122 11.0361 5.03781C10.8967 4.43514 10.7574 3.83173 10.7574 3.83173C10.7574 3.83173 10.5194 4.42402 10.3 5.01631C10.1933 5.31208 10.0858 5.60786 10.0057 5.8295C9.92788 6.05337 9.87599 6.20311 9.87599 6.20311C9.87599 6.20311 9.2622 6.20904 8.6499 6.21572C8.02425 6.24907 7.39934 6.28317 7.39934 6.28317C7.39934 6.28317 7.1903 5.69681 6.98051 5.11045C6.76035 4.53002 6.54019 3.94885 6.54019 3.94885C6.54019 3.94885 6.35486 4.57228 6.19252 5.19348C6.0287 5.81468 5.88785 6.43291 5.88785 6.43291C5.88785 6.43291 5.73366 6.44922 5.49867 6.48777C5.26443 6.52483 4.9516 6.5745 4.63878 6.62417C4.3267 6.66938 4.00868 6.74351 3.77073 6.79318C3.53277 6.84433 3.37488 6.87917 3.37488 6.87917C2.94419 6.9659 2.53722 7.14307 2.16732 7.36842C1.79816 7.59081 1.46606 7.86434 1.17992 8.20237C0.894523 8.53521 0.654346 8.89696 0.469023 9.30319C0.285183 9.71535 0.153234 10.1542 0.0768809 10.6086C0.0383338 10.8362 0.0146126 11.0675 0.00349321 11.3024C-0.00466103 11.5426 0.000528097 11.7858 0.0190603 12.0304C0.0568661 12.5204 0.148045 13.0171 0.291114 13.5145C0.57651 14.5093 1.06799 15.5041 1.70772 16.4796C2.03759 16.983 2.38748 17.4552 2.74256 17.8984C3.21031 17.4737 3.78481 17.0245 4.48014 16.6042C5.35338 16.0719 6.42306 15.5789 7.63285 15.2239C8.84412 14.8584 10.1962 14.6086 11.6314 14.4596C13.0687 14.3113 14.5773 14.235 16.1473 14.2061C17.7144 14.1794 19.3363 14.1927 20.9805 14.2832C22.6254 14.3692 24.2933 14.5159 25.9538 14.7176C27.6158 14.9281 29.2622 15.2046 30.8782 15.4796C32.4942 15.7509 34.0761 16.0378 35.6151 16.252C37.1525 16.4618 38.6417 16.6264 40.0606 16.6842C41.4757 16.7472 42.8189 16.7057 44.0502 16.5856C45.2807 16.4618 46.4008 16.2609 47.3749 16.0082C48.3504 15.7554 49.1762 15.4492 49.8441 15.1675C50.5061 14.874 51.0168 14.6168 51.3549 14.4233C51.6921 14.2276 51.8723 14.1238 51.8723 14.1238C51.8723 14.1238 51.7003 14.2402 51.3764 14.4581C51.0502 14.6724 50.5617 14.9755 49.9056 15.3017C49.2481 15.6205 48.429 15.9726 47.4535 16.2795C46.4787 16.5886 45.3504 16.8517 44.1013 17.0185C42.853 17.189 41.4868 17.2817 40.0428 17.2506C38.6002 17.2298 37.0828 17.1082 35.5268 16.914C33.9709 16.7176 32.3719 16.4737 30.7566 16.2024C29.1406 15.9362 27.5016 15.6709 25.8597 15.4707C24.217 15.2617 22.5676 15.1082 20.9397 15.0141C19.3119 14.9214 17.7077 14.8666 16.154 14.8725C14.6047 14.8829 13.0954 14.9125 11.6833 15.0215C10.2696 15.1364 8.94345 15.3306 7.74997 15.6412C6.55279 15.9526 5.50609 16.3714 4.62025 16.848C3.91899 17.2239 3.33263 17.636 2.85153 18.0311C3.14879 18.3966 3.44901 18.7457 3.7433 19.0704C4.08503 19.4477 4.4201 19.7969 4.73959 20.1171C4.89823 20.2728 5.0539 20.4248 5.20512 20.573C5.35931 20.7183 5.50979 20.8592 5.65509 20.9963C5.94493 21.2617 6.21402 21.4937 6.4579 21.6842C6.70624 21.8799 6.94345 22.0474 7.14953 22.1609C7.35338 22.2698 7.55056 22.3491 7.72922 22.3736C7.90638 22.3958 8.06131 22.3603 8.22291 22.2824C8.22291 22.2824 8.27999 22.2506 8.36598 22.2046C8.45271 22.1579 8.56317 22.0875 8.69215 22.0356C8.81743 21.9778 8.94271 21.9192 9.03685 21.8762C9.08355 21.854 9.12358 21.8347 9.15101 21.8221C9.18066 21.8102 9.19697 21.8043 9.19697 21.8043C9.19697 21.8043 9.44382 22.3499 9.66695 22.8992C9.8923 23.4485 10.0947 24 10.0947 24C10.0947 24 10.0339 23.3855 9.9731 22.7709C9.92418 22.1579 9.87525 21.5448 9.87525 21.5448C9.87525 21.5448 10.1762 21.447 10.4772 21.3477C10.7952 21.2617 11.1132 21.1749 11.1132 21.1749C11.1132 21.1749 11.1592 21.3165 11.2281 21.5285C11.2948 21.7428 11.3845 22.0282 11.4735 22.3136C11.6477 22.8851 11.8026 23.4566 11.8026 23.4566C11.8026 23.4566 11.8248 22.8406 11.8478 22.2261C11.8775 21.6101 11.9079 20.9941 11.9079 20.9941C11.9079 20.9941 12.2563 20.9318 12.6039 20.8695C12.7774 20.8347 12.962 20.8184 13.0962 20.7969C13.2318 20.7784 13.3222 20.7658 13.3222 20.7658C13.3222 20.7658 13.4609 21.3425 13.5884 21.9288C13.7181 22.5145 13.833 23.0993 13.833 23.0993C13.833 23.0993 13.922 22.4915 14.0116 21.8836C14.1065 21.2758 14.2007 20.6686 14.2007 20.6686C14.2007 20.6686 14.2948 20.659 14.4357 20.6457C14.5787 20.636 14.7692 20.6234 14.9605 20.6108C15.151 20.596 15.3437 20.5849 15.4913 20.5819C15.6373 20.5767 15.7351 20.573 15.7351 20.573C15.7351 20.573 15.83 21.1631 15.9249 21.7539C16.0102 22.3462 16.0954 22.9392 16.0954 22.9392C16.0954 22.9392 16.237 22.3425 16.3778 21.7457C16.5246 21.1497 16.6707 20.5537 16.6707 20.5537C16.6707 20.5537 17.0635 20.5456 17.4861 20.5597C17.899 20.5641 18.326 20.5834 18.326 20.5834C18.326 20.5834 18.4001 21.1809 18.4742 21.7784C18.5432 22.3751 18.6113 22.9718 18.6113 22.9718L19.3408 20.6316C19.3408 20.6316 19.4497 20.6383 19.6128 20.6471C19.7752 20.656 19.9939 20.6694 20.217 20.6872C20.6632 20.7198 21.1088 20.7532 21.1088 20.7532L21.3689 23.1557L22.1784 20.8443L24.0413 21.0185L24.3311 23.4277L25.1606 21.126L27.1132 21.3054C27.1132 21.3054 27.2029 21.9066 27.2933 22.5085C27.3897 23.1097 27.4861 23.7116 27.4861 23.7116L28.2778 21.401C28.2778 21.401 28.7833 21.4366 29.2889 21.4729C29.8011 21.5026 30.3134 21.5322 30.3134 21.5322C30.3134 21.5322 30.4283 22.1312 30.5565 22.7279C30.6892 23.3239 30.8226 23.9207 30.8226 23.9207L31.5194 21.5834C31.5194 21.5834 31.6492 21.5878 31.8441 21.5945C32.0413 21.5975 32.3052 21.6019 32.5684 21.6064C32.83 21.6116 33.0932 21.6138 33.2941 21.6108C33.4935 21.6093 33.6262 21.6079 33.6262 21.6079C33.6262 21.6079 33.793 22.1964 33.9605 22.785C34.1325 23.3736 34.323 23.9526 34.323 23.9526C34.323 23.9526 34.4609 23.358 34.598 22.7635C34.7307 22.169 34.8634 21.5738 34.8634 21.5738C34.8634 21.5738 35.3971 21.55 35.9308 21.5263C36.4631 21.4893 36.9924 21.4366 36.9924 21.4366C36.9924 21.4366 37.2066 22.0082 37.4208 22.5797C37.6477 23.1512 37.8738 23.722 37.8738 23.722C37.8738 23.722 37.9612 23.1201 38.0487 22.5182C38.1303 21.9148 38.2125 21.3121 38.2125 21.3121C38.2125 21.3121 38.7374 21.2402 39.2622 21.169C39.5231 21.1327 39.7848 21.0993 39.979 21.06C40.174 21.0252 40.3037 21.0015 40.3037 21.0015C40.3037 21.0015 40.5602 21.5508 40.8167 22.1008C41.085 22.6486 41.3534 23.1972 41.3534 23.1972C41.3534 23.1972 41.3919 22.593 41.4297 21.9896C41.4624 21.3862 41.4957 20.7828 41.4957 20.7828C41.4957 20.7828 41.624 20.7576 41.8159 20.7131C42.0079 20.6686 42.2637 20.6108 42.5194 20.5523C42.7744 20.4937 43.0294 20.4344 43.2207 20.3907C43.4112 20.3491 43.5372 20.3091 43.5372 20.3091C43.5372 20.3091 43.8337 20.8347 44.1295 21.3595C44.4379 21.8821 44.7455 22.4055 44.7455 22.4055C44.7455 22.4055 44.7344 21.8013 44.724 21.1972C44.7077 20.5938 44.6914 19.9904 44.6914 19.9904C44.6914 19.9904 45.1947 19.8554 45.6877 19.6872C46.1814 19.5271 46.6744 19.3662 46.6744 19.3662C46.6744 19.3662 47.005 19.8762 47.3437 20.3692C47.6884 20.8636 48.0339 21.3588 48.0339 21.3588C48.0339 21.3588 47.9746 20.7583 47.9153 20.1579C47.8515 19.5582 47.787 18.9592 47.787 18.9592C47.787 18.9592 47.9086 18.9133 48.0895 18.8458C48.2704 18.7754 48.5142 18.6924 48.7507 18.5871C49.2251 18.3855 49.6996 18.1838 49.6996 18.1838C49.6996 18.1838 50.0709 18.6605 50.4423 19.1364C50.6314 19.3706 50.8211 19.6049 50.9635 19.7806C51.1073 19.9548 51.2029 20.0704 51.2029 20.0704C51.2029 20.0704 51.0962 19.4774 50.9894 18.8836C50.8782 18.2921 50.767 17.7005 50.767 17.7005C50.767 17.7005 51.2288 17.4789 51.6914 17.2572C51.9227 17.1475 52.1458 17.0193 52.3163 16.9318C52.4853 16.8414 52.598 16.7813 52.598 16.7813C52.598 16.7813 53.0027 17.2246 53.4075 17.6686C53.8219 18.1075 54.237 18.5463 54.237 18.5463C54.237 18.5463 54.0843 17.9659 53.9316 17.3855C53.7729 16.805 53.6151 16.2254 53.6151 16.2254C53.6151 16.2254 54.0539 15.9652 54.492 15.7057C54.9331 15.4544 55.3549 15.1683 55.3549 15.1683C55.3549 15.1683 55.79 15.5767 56.2251 15.9852C56.6706 16.3884 57.1162 16.7917 57.1162 16.7917C57.1162 16.7917 56.9182 16.2276 56.7196 15.6635C56.5172 15.1016 56.3148 14.5397 56.3148 14.5397C56.3148 14.5397 56.4208 14.4715 56.5743 14.3588C56.7285 14.2476 56.9338 14.0993 57.1391 13.9518C57.3445 13.8043 57.5491 13.6568 57.7018 13.5456C57.8567 13.4374 57.9538 13.3558 57.9538 13.3558C57.9538 13.3558 58.4171 13.7265 58.8804 14.0971C59.3541 14.4618 59.8271 14.8265 59.8271 14.8265C59.8271 14.8265 59.5832 14.2809 59.34 13.7354C59.0924 13.1927 58.8449 12.6501 58.8449 12.6501C58.8449 12.6501 59.2422 12.344 59.6165 12.0067C59.9946 11.6775 60.3727 11.3484 60.3727 11.3484C60.3727 11.3484 60.8619 11.6924 61.3571 12.0171C61.8523 12.3454 62.3578 12.6657 62.3578 12.6657C62.3578 12.6657 62.0709 12.1438 61.7833 11.6219C61.4905 11.103 61.1984 10.5841 61.1984 10.5841C61.1984 10.5841 61.5602 10.2365 61.9101 9.87843C62.0835 9.6983 62.257 9.51816 62.3875 9.38325C62.5142 9.24463 62.5987 9.15271 62.5987 9.15271C62.5987 9.15271 63.1132 9.44403 63.6388 9.72498C64.1651 10.0082 64.6959 10.2713 64.6959 10.2713C64.6959 10.2713 64.36 9.77984 64.0242 9.2891C63.6833 8.80208 63.3415 8.31505 63.3415 8.31505C63.3415 8.31505 63.4231 8.22016 63.5446 8.07784C63.6625 7.93254 63.8196 7.73832 63.9775 7.54485C64.2859 7.15271 64.5832 6.75315 64.5832 6.75315C64.5832 6.75315 65.1221 6.98517 65.6744 7.20163C66.2259 7.42031 66.7893 7.62268 66.7893 7.62268C66.7893 7.62268 66.3986 7.17494 66.0087 6.72721C65.6128 6.28466 65.217 5.84136 65.217 5.84136C65.217 5.84136 66.1406 4.48258 66.81 3.00964C67.1503 2.2765 67.429 1.52261 67.6121 0.95404C67.7085 0.670867 67.7648 0.427724 67.8152 0.261675C67.8626 0.0948851 67.8886 0 67.8886 0C67.8886 0 67.8404 0.0867309 67.7559 0.237954Z" fill="#B4CBAB"/>
</g>
</svg>
