<svg width="11" height="27" viewBox="0 0 11 27" fill="none" xmlns="http://www.w3.org/2000/svg">
<path fill-rule="evenodd" clip-rule="evenodd" d="M10.5933 0.312215C10.7028 0.423792 10.7927 0.55993 10.858 0.71285C10.9232 0.865769 10.9624 1.03247 10.9735 1.20343C10.9845 1.37438 10.967 1.54625 10.9221 1.70919C10.8772 1.87213 10.8058 2.02296 10.7118 2.15305L2.54309 13.4834L10.7118 24.8138C10.8112 24.9428 10.8878 25.0942 10.9369 25.2591C10.9861 25.424 11.0069 25.599 10.998 25.7736C10.9892 25.9482 10.9509 26.1189 10.8854 26.2756C10.8199 26.4323 10.7286 26.5717 10.6169 26.6856C10.5052 26.7995 10.3754 26.8855 10.2351 26.9386C10.0949 26.9916 9.94711 27.0106 9.80058 26.9944C9.65405 26.9782 9.51175 26.9271 9.38215 26.8442C9.25255 26.7614 9.1383 26.6483 9.04618 26.5119L0.264159 14.3325C0.0936948 14.096 0 13.7948 0 13.4834C0 13.172 0.0936948 12.8708 0.264159 12.6343L9.04618 0.454889C9.2357 0.192482 9.5051 0.0302436 9.79519 0.00381775C10.0853 -0.0226081 10.3723 0.0889408 10.5933 0.313956V0.312215Z" fill="black"/>
</svg>
