<svg width="11" height="27" viewBox="0 0 11 27" fill="none" xmlns="http://www.w3.org/2000/svg">
<path fill-rule="evenodd" clip-rule="evenodd" d="M0.384105 0.313956C0.605707 0.0886188 0.893485 -0.0228943 1.1842 0.00392137C1.47492 0.0307371 1.74479 0.193688 1.93451 0.456966L10.7353 12.6651C10.9061 12.9021 11 13.204 11 13.5162C11 13.8283 10.9061 14.1302 10.7353 14.3672L1.93451 26.5754C1.74165 26.8258 1.47445 26.9772 1.1894 26.9976C0.904348 27.0181 0.623784 26.9059 0.407018 26.6849C0.190253 26.4638 0.0542729 26.1512 0.0278253 25.8131C0.00137756 25.475 0.0865346 25.138 0.265295 24.8732L8.45148 13.5162L0.265295 2.15913C0.0754269 1.89608 -0.0188623 1.55419 0.00313984 1.20854C0.025142 0.862896 0.161636 0.541769 0.382638 0.315701L0.384105 0.313956Z" fill="black"/>
</svg>
